<svg width="1300" height="1299" xmlns="http://www.w3.org/2000/svg" xmlns:xlink="http://www.w3.org/1999/xlink" xml:space="preserve" overflow="hidden"><defs><clipPath id="clip0"><rect x="5448" y="588" width="1300" height="1299"/></clipPath></defs><g clip-path="url(#clip0)" transform="translate(-5448 -588)"><path d="M5448 1165.94 5517.56 1235.82 5448 1305.7 5448.84 1799.29C5448.84 1847.73 5488.01 1887 5536.31 1887L6028.67 1887 6095.58 1819.77 6162.52 1887 6660.56 1887C6708.86 1887 6748 1847.73 6748 1799.29L6746.87 1310.97 6676.37 1240.13 6746.87 1169.28 6747.17 675.693C6747.17 627.256 6708 588 6659.73 588L6172.32 588 6101.91 658.733 6031.49 588 5536.32 588C5488.03 588 5448.87 627.256 5448.87 675.693Z" fill="#4EC3E0" fill-rule="evenodd"/><path d="M6361.94 1412.94 6361.94 1469.31C6361.94 1503.9 6333.84 1532.02 6299.3 1532.02L5895.69 1532.02C5861.15 1532.02 5833.05 1503.9 5833.05 1469.31L5833.05 1125.59C5833.05 1091.02 5861.15 1062.88 5895.69 1062.88L6299.3 1062.88C6333.84 1062.88 6361.94 1091.02 6361.94 1125.59L6361.94 1181.96 6491.7 1181.96 6491.7 1125.59C6491.7 1019.35 6405.4 932.915 6299.3 932.915L6162.37 932.915 6162.37 811.547 6487.07 845.823 6492 798.794 5707.92 716 5703 763.046 6032.6 797.841 6032.6 932.915 5895.69 932.915C5789.58 932.915 5703.29 1019.35 5703.29 1125.59L5703.29 1469.31C5703.29 1575.57 5789.58 1662 5895.69 1662L6299.3 1662C6405.4 1662 6491.7 1575.57 6491.7 1469.31L6491.7 1412.94Z" fill="#FFFFFF" fill-rule="evenodd"/></g></svg>