<svg width="975" height="975" xmlns="http://www.w3.org/2000/svg" xmlns:xlink="http://www.w3.org/1999/xlink" xml:space="preserve" overflow="hidden"><defs><clipPath id="clip0"><rect x="2880" y="-420" width="975" height="975"/></clipPath></defs><g clip-path="url(#clip0)" transform="translate(-2880 420)"><path d="M973.396 908.314C973.396 944.634 944.031 974.073 907.822 974.073L540.001 974.073 487.196 921.034 434.398 974.073 65.7798 974.073C29.5639 974.073 0.19961 944.634 0.19961 908.314L0.19961 539.473 52.3656 487.074 0.19961 434.673 0.19961 65.8326C0.19961 29.5135 29.5639 0.0732749 65.7798 0.0732749L437.016 0.0732749 487.196 50.4803 537.383 0.0732749 908.62 0.0732749C944.836 0.0732749 974.2 29.5135 974.2 65.8326L974.2 433.959 921.326 487.074 974.2 540.188Z" fill="#F04E98" fill-rule="evenodd" transform="matrix(1 0 0 -1 2880 555)"/><path d="M226.865 293.649 93.8985 161.839 94.3715 295.54 1.7859 296.068 0.168474 1.68459 294.641 0.0676572 295.168 92.6252 161.564 93.0978 294.703 225.086Z" fill="#FFFFFF" fill-rule="evenodd" transform="matrix(1 0 0 -1 3044 389)"/><path d="M68.7084 2.46122 202.129 134.73 201.655 0.563669 294.556 0.034304 296.179 295.412 0.701844 297.035 0.179163 204.164 134.226 203.69 0.640076 71.2563Z" fill="#FFFFFF" fill-rule="evenodd" transform="matrix(1 0 0 -1 3395 43)"/><path d="M293.772 68.5856 161.948 202.006 295.663 201.532 296.19 294.433 1.80731 296.056 0.190376 0.57903 92.7476 0.0563498 93.2205 134.103 225.209 0.516901Z" fill="#FFFFFF" fill-rule="evenodd" transform="matrix(1 0 0 -1 3395 392)"/><path d="M0.157076 1.65166 295.535 0.0341996 297.157 294.506 204.287 295.034 203.813 161.427 71.3787 294.568 2.58363 226.736 134.839 93.7596 0.686441 94.2391Z" fill="#FFFFFF" fill-rule="evenodd" transform="matrix(1 0 0 -1 3043 38.9998)"/></g></svg>