<svg width="975" height="975" xmlns="http://www.w3.org/2000/svg" xmlns:xlink="http://www.w3.org/1999/xlink" xml:space="preserve" overflow="hidden"><defs><clipPath id="clip0"><rect x="543" y="-420" width="975" height="975"/></clipPath></defs><g clip-path="url(#clip0)" transform="translate(-543 420)"><path d="M973.273 908.314C973.273 944.634 943.908 974.073 907.699 974.073L539.878 974.073 487.073 921.034 434.275 974.073 65.6571 974.073C29.4411 974.073 0.076523 944.634 0.076523 908.314L0.076523 539.473 52.2428 487.074 0.076523 434.673 0.076523 65.8326C0.076523 29.5135 29.4411 0.0732749 65.6571 0.0732749L436.893 0.0732749 487.073 50.4803 537.26 0.0732749 908.497 0.0732749C944.712 0.0732749 974.077 29.5135 974.077 65.8326L974.077 433.959 921.203 487.074 974.077 540.188Z" fill="#9B26B6" fill-rule="evenodd" transform="matrix(1 0 0 -1 543 555)"/><path d="M627.559 504.011 394.965 112.063C391.389 107.519 386.981 103.746 381.845 100.832 371.42 94.9069 359.29 93.3808 347.696 96.5427 336.117 99.7045 326.455 107.169 320.542 117.513L98.4408 506.815C96.3022 512.149 95.2226 517.806 95.2501 523.682 95.3877 548.378 115.68 568.365 140.476 568.228L586.156 565.774C610.952 565.637 631.018 545.429 630.88 520.727 630.846 514.905 629.732 509.29 627.559 504.011M586.679 660.605 140.999 663.059C63.7082 663.485 0.493378 601.192 0.0671803 524.205-0.0426197 504.045 4.08319 484.553 12.3279 466.27 12.9467 464.902 13.6275 463.569 14.3632 462.263L237.819 70.6098C256.357 38.2025 286.455 14.9361 322.563 5.08678 334.617 1.79463 346.864 0.131411 359.043 0.0624565 383.323-0.0678719 407.328 6.14529 428.996 18.4485 446.565 28.4217 461.446 41.7282 473.225 57.9835 474.071 59.1521 474.869 60.3619 475.604 61.6128L710.942 458.18C711.753 459.548 712.496 460.964 713.17 462.407 721.614 480.601 725.953 500.045 726.063 520.205 726.489 597.192 663.955 660.179 586.679 660.605" fill="#FFFFFF" fill-rule="evenodd" transform="matrix(1 0 0 -1 667 405)"/><path d="M0.0437592 96.0492 0.0437592 1.58923 280.044 0.0489104 280.044 94.5153Z" fill="#FFFFFF" fill-rule="evenodd" transform="matrix(1 0 0 -1 890 25.0001)"/></g></svg>