<?xml version="1.0" encoding="utf-8"?>
<!-- Generator: Adobe Illustrator 21.0.2, SVG Export Plug-In . SVG Version: 6.00 Build 0)  -->
<svg version="1.1" id="Capa_1" xmlns="http://www.w3.org/2000/svg" xmlns:xlink="http://www.w3.org/1999/xlink" x="0px" y="0px"
	 viewBox="0 0 545 545" style="enable-background:new 0 0 545 545;" xml:space="preserve">
<style type="text/css">
	.st0{fill:#BE1C00;}
</style>
<path class="st0" d="M539.1,215.8H396.2h-13H148.8v0l-5.2,0c18.8-53.1,69.4-91.1,128.9-91.1c50,0,93.7,26.9,117.6,66.9h142.7
	C498.3,80.6,394.8,0,272.5,0C122,0,0,122,0,272.5c0,14.2,1.1,28.2,3.2,41.9h154.9v0l243.2,0.4c-18.9,52.9-69.4,90.7-128.8,90.7
	c-50,0-93.7-26.9-117.5-66.9H8.1C37.6,457.1,144.8,545,272.5,545C423,545,545,423,545,272.5C545,253,542.9,234.1,539.1,215.8z"/>
</svg>
