<svg width="975" height="975" xmlns="http://www.w3.org/2000/svg" xmlns:xlink="http://www.w3.org/1999/xlink" xml:space="preserve" overflow="hidden"><defs><clipPath id="clip0"><rect x="2880" y="1917" width="975" height="975"/></clipPath></defs><g clip-path="url(#clip0)" transform="translate(-2880 -1917)"><path d="M973.396 908.437C973.396 944.756 944.031 974.196 907.822 974.196L539.998 974.196 487.2 921.157 434.394 974.196 65.7734 974.196C29.5572 974.196 0.199611 944.756 0.199611 908.437L0.199611 539.596 52.3591 487.196 0.199611 434.796 0.199611 65.9553C0.199611 29.6431 29.5572 0.196001 65.7734 0.196001L437.012 0.196001 487.2 50.6099 537.38 0.196001 908.619 0.196001C944.835 0.196001 974.2 29.6431 974.2 65.9553L974.2 434.081 921.326 487.196 974.2 540.311Z" fill="#FE5000" fill-rule="evenodd" transform="matrix(1 0 0 -1 2880 2892)"/><path d="M373.289 584.189 0.178191 584.189 0.178191 486.85 373.289 486.85C436.008 486.85 486.847 436.011 486.847 373.297L486.847 0.189014 584.179 0.189014 584.179 373.297C584.179 489.769 489.759 584.189 373.289 584.189" fill="#FFFFFF" fill-rule="evenodd" transform="matrix(1 0 0 -1 3075 2697)"/><path d="M108.18 373.492 108.18 0.186585 11.0864 0.186585 11.0864 373.492C11.0864 390.917 7.1815 407.428 0.180275 422.187L59.6369 422.187C86.45 422.187 108.18 400.386 108.18 373.492" fill="#FFFFFF" fill-rule="evenodd" transform="matrix(1 0 0 -1 3389 2697)"/><path d="M108.172 373.492 108.172 0.186585 11.0709 0.186585 11.0367 376.605C10.5985 392.882 6.74143 408.308 0.171639 422.187L59.6214 422.187C86.4346 422.187 108.172 400.386 108.172 373.492" fill="#FFFFFF" fill-rule="evenodd" transform="matrix(1 0 0 -1 3227 2697)"/><path d="M98.1652 373.492 98.1652 0.186585 0.164888 0.186585 0.164888 422.187 49.1614 422.187C76.2253 422.187 98.1652 400.386 98.1652 373.492" fill="#FFFFFF" fill-rule="evenodd" transform="matrix(1 0 0 -1 3075 2697)"/></g></svg>