<svg width="975" height="975" xmlns="http://www.w3.org/2000/svg" xmlns:xlink="http://www.w3.org/1999/xlink" xml:space="preserve" overflow="hidden"><defs><clipPath id="clip0"><rect x="543" y="748" width="975" height="975"/></clipPath></defs><g clip-path="url(#clip0)" transform="translate(-543 -748)"><path d="M973.273 908.375C973.273 944.695 943.908 974.134 907.699 974.134L539.878 974.134 487.08 921.096 434.275 974.134 65.6571 974.134C29.4411 974.134 0.076523 944.695 0.076523 908.375L0.076523 539.535 52.2428 487.135 0.076523 434.735 0.076523 65.894C0.076523 29.5749 29.4411 0.134638 65.6571 0.134638L436.893 0.134638 487.08 50.5416 537.26 0.134638 908.497 0.134638C944.712 0.134638 974.077 29.5749 974.077 65.894L974.077 434.02 921.203 487.135 974.077 540.249Z" fill="#C8102E" fill-rule="evenodd" transform="matrix(1 0 0 -1 543 1723)"/><path d="M421.375 340.39 421.375 414.861C421.375 441.506 415.181 466.703 404.131 489.221L420.915 489.221 420.915 489.31C459.284 485.911 489.281 453.785 489.281 414.861 489.281 376.032 459.38 343.899 421.375 340.39M421.375 95.0092 421.375 243.93C459.38 240.331 489.281 208.404 489.281 169.48 489.281 130.651 459.38 98.6355 421.375 95.0092M584.058 414.861C584.058 508.223 507.919 584.115 414.35 584.115L0.058075 584.115 0.058075 0.115068 97.3903 0.115068 97.3903 486.783C135.649 483.384 163.503 453.785 163.503 414.861L162.281 0.115068 259.613 0.115068 259.613 414.861C259.613 440.888 252.368 463.647 240.961 486.783L251.908 486.783C291.979 486.687 322.697 457.823 324.503 418.054L324.497 0.115068 421.375 0.115068 421.375 0.204164C511.744 4.03639 584.058 78.3969 584.058 169.48 584.058 216.165 564.925 260.247 531.467 292.057 564.925 324.073 584.058 368.182 584.058 414.861" fill="#FFFFFF" fill-rule="evenodd" transform="matrix(1 0 0 -1 738 1528)"/></g></svg>