<svg width="975" height="975" xmlns="http://www.w3.org/2000/svg" xmlns:xlink="http://www.w3.org/1999/xlink" xml:space="preserve" overflow="hidden"><defs><clipPath id="clip0"><rect x="543" y="1917" width="975" height="975"/></clipPath></defs><g clip-path="url(#clip0)" transform="translate(-543 -1917)"><path d="M973.272 908.437C973.272 944.756 943.908 974.196 907.699 974.196L539.875 974.196 487.077 921.157 434.271 974.196 65.6507 974.196C29.4345 974.196 0.0765235 944.756 0.0765235 908.437L0.0765235 539.596 52.2363 487.196 0.0765235 434.796 0.0765235 65.9553C0.0765235 29.6431 29.4345 0.196001 65.6507 0.196001L436.889 0.196001 487.077 50.6099 537.257 0.196001 908.496 0.196001C944.712 0.196001 974.077 29.6431 974.077 65.9553L974.077 434.081 921.203 487.196 974.077 540.311Z" fill="#78BE20" fill-rule="evenodd" transform="matrix(1 0 0 -1 543 2892)"/><path d="M0.032917 0.161375 94.4634 0.161375 94.4634 257.303C94.4634 298.116 127.829 331.314 168.833 331.314L183.033 331.314 183.033 425.162 168.833 425.162C75.7589 425.162 0.032917 349.858 0.032917 257.303Z" fill="#FFFFFF" fill-rule="evenodd" transform="matrix(1 0 0 -1 682 2590)"/><path d="M0.0451771 0.155591 98.9845 0.155591 98.9845 331.292 187.046 331.292 187.046 429.719 98.9845 429.719 98.9845 539.156 0.0451771 539.156Z" fill="#FFFFFF" fill-rule="evenodd" transform="matrix(1 0 0 -1 918 2592)"/><path d="M0.0534013 0.161157 94.2608 0.161157 94.2608 253.907 163.67 253.907C256.517 253.907 332.053 329.101 332.053 421.531 332.053 513.967 256.517 589.161 163.67 589.161L87.673 589.161 87.673 495.441 163.67 495.441C204.577 495.441 237.853 462.289 237.853 421.531 237.853 380.78 204.577 347.62 163.67 347.62L0.0534013 347.62Z" fill="#FFFFFF" fill-rule="evenodd" transform="matrix(1 0 0 -1 1070 2754)"/></g></svg>