<svg width="975" height="975" xmlns="http://www.w3.org/2000/svg" xmlns:xlink="http://www.w3.org/1999/xlink" xml:space="preserve" overflow="hidden"><defs><clipPath id="clip0"><rect x="1712" y="1917" width="975" height="975"/></clipPath></defs><g clip-path="url(#clip0)" transform="translate(-1712 -1917)"><path d="M973.335 908.437C973.335 944.756 943.97 974.196 907.761 974.196L539.937 974.196 487.138 921.157 434.333 974.196 65.7121 974.196C29.4959 974.196 0.138248 944.756 0.138248 908.437L0.138248 539.596 52.2977 487.196 0.138248 434.796 0.138248 65.9553C0.138248 29.6431 29.4959 0.196001 65.7121 0.196001L436.951 0.196001 487.138 50.6099 537.318 0.196001 908.558 0.196001C944.774 0.196001 974.138 29.6431 974.138 65.9553L974.138 434.081 921.264 487.196 974.138 540.311Z" fill="#0057B8" fill-rule="evenodd" transform="matrix(1 0 0 -1 1712 2892)"/><path d="M507.978 0.159211 179.192 0.159211 358.916 311.28 284.157 311.28 104.413 0.159211 0.121355 0.159211 179.818 311.28 32.3573 311.28 32.3573 401.596 231.981 401.596 269.676 466.844 32.3573 466.844 32.3573 557.159 681.121 557.159 681.121 466.844 373.981 466.844 336.3 401.596 681.121 401.596 681.121 311.28 463.242 311.28 335.722 90.4543 507.978 90.4543Z" fill="#FFFFFF" fill-rule="evenodd" transform="matrix(1 0 0 -1 1858 2683)"/><path d="M147.126 0.177192 0.125499 0.177192 52.0464 91.1773 147.126 91.1773Z" fill="#FFFFFF" fill-rule="evenodd" transform="matrix(1 0 0 -1 2305 2528)"/></g></svg>