<svg xmlns="http://www.w3.org/2000/svg" width="1000" height="1000" viewBox="0 0 1000 1000" fill="none"><path d="M999.245 67.2353C999.245 29.9482 969.094 -0.280273 931.908 -0.280273H554.205L499.986 54.1771L445.768 -0.280273H67.2455C30.0596 -0.280273 -0.0913086 29.9482 -0.0913086 67.2353V445.924L53.4736 499.719L-0.0913086 553.524V932.204C-0.0913086 969.491 30.0596 999.72 67.2455 999.72H448.457L499.986 947.968L551.515 999.72H932.727C969.913 999.72 1000.06 969.491 1000.06 932.204V554.252L945.771 499.719L1000.06 445.188L999.236 67.2353H999.245Z" fill="#83332E"></path><path d="M713.361 343.984V588.609C713.361 657.333 657.636 713.049 588.892 713.049H411.09C342.346 713.049 286.62 657.333 286.62 588.609V343.984H179.938V588.609C179.938 634.428 193.271 677.127 216.279 713.049C257.355 777.196 329.26 819.714 411.098 819.714H588.9C670.737 819.714 742.634 777.196 783.719 713.049C806.719 677.127 820.06 634.428 820.06 588.609V343.984H713.377H713.361Z" fill="white"></path><path d="M820.052 179.717H179.938V286.382H820.052V179.717Z" fill="white"></path><path d="M548.891 641.95V343.984H442.208V641.95H548.891Z" fill="white"></path></svg>